<svg id="Capa_1" data-name="Capa 1" xmlns="http://www.w3.org/2000/svg" viewBox="0 0 64 64"><defs><style>.cls-1{fill:#1d1d1b;}</style></defs><path class="cls-1" d="M15,50V3.25H35.66a13.27,13.27,0,0,1,6,1.35,15.51,15.51,0,0,1,4.71,3.56,16.77,16.77,0,0,1,3.1,5,15,15,0,0,1,1.12,5.63,15.6,15.6,0,0,1-2.27,8.27,13,13,0,0,1-6.17,5.37L52.79,50H42.58L33,34.35h-9V50Zm9.09-23.66h11.4a4.9,4.9,0,0,0,2.34-.59,6.17,6.17,0,0,0,1.88-1.62,8.26,8.26,0,0,0,1.25-2.4,9.24,9.24,0,0,0,.46-3,8.5,8.5,0,0,0-.53-3,7.92,7.92,0,0,0-1.41-2.4,6.46,6.46,0,0,0-2.05-1.58,5.22,5.22,0,0,0-2.34-.56h-11Z"/><rect class="cls-1" x="10.17" y="53.94" width="43.66" height="6.81"/></svg>